<svg width="160" height="160" viewBox="0 0 160 160" fill="none" xmlns="http://www.w3.org/2000/svg">
<rect width="160" height="160" rx="2" fill="#1E1E1E"/>
<path d="M56.9229 11H140.384C145.907 11 150.384 15.4772 150.384 21V41.3846C150.384 46.9075 145.907 51.3846 140.384 51.3846H56.9229V11Z" fill="white"/>
<path d="M5 21C5 15.4771 9.47715 11 15 11H46.5385V51.3846H15C9.47715 51.3846 5 46.9075 5 41.3846V21Z" fill="white"/>
<path d="M5 59.4614H99.6154V99.8461C99.6154 99.8461 60.3846 99.8461 35 99.8461C9.61538 99.8461 5.25325 82.7283 5 59.4614Z" fill="white"/>
<path d="M5 148.308H99.6154V107.923C99.6154 107.923 60.3846 107.923 35 107.923C9.61538 107.923 5.25325 125.041 5 148.308Z" fill="#00803E"/>
<path d="M155 103.885C155 128.419 133.82 148.308 107.692 148.308C107.692 135.694 107.692 130.044 107.692 105.51C107.692 80.9756 107.692 74.8176 107.692 59.4614C133.82 59.4614 155 79.3503 155 103.885Z" fill="white"/>
</svg>
